<svg width="21" height="20" viewBox="0 0 21 20" fill="none" xmlns="http://www.w3.org/2000/svg">
<path d="M10.3333 5.83334V17.5" stroke="#15803D" stroke-width="2" stroke-linecap="round" stroke-linejoin="round"/>
<path d="M2.8333 15C2.61229 15 2.40033 14.9122 2.24405 14.7559C2.08777 14.5996 1.99997 14.3877 1.99997 14.1667V3.33333C1.99997 3.11232 2.08777 2.90036 2.24405 2.74408C2.40033 2.5878 2.61229 2.5 2.8333 2.5H6.99997C7.88402 2.5 8.73187 2.85119 9.35699 3.47631C9.98211 4.10143 10.3333 4.94928 10.3333 5.83333C10.3333 4.94928 10.6845 4.10143 11.3096 3.47631C11.9347 2.85119 12.7826 2.5 13.6666 2.5H17.8333C18.0543 2.5 18.2663 2.5878 18.4226 2.74408C18.5788 2.90036 18.6666 3.11232 18.6666 3.33333V14.1667C18.6666 14.3877 18.5788 14.5996 18.4226 14.7559C18.2663 14.9122 18.0543 15 17.8333 15H12.8333C12.1703 15 11.5344 15.2634 11.0655 15.7322C10.5967 16.2011 10.3333 16.837 10.3333 17.5C10.3333 16.837 10.0699 16.2011 9.60107 15.7322C9.13223 15.2634 8.49634 15 7.8333 15H2.8333Z" stroke="#15803D" stroke-width="2" stroke-linecap="round" stroke-linejoin="round"/>
</svg>
