<svg width="14" height="16" viewBox="0 0 14 16" fill="none" xmlns="http://www.w3.org/2000/svg">
<path d="M11.0416 6.66668C11.0416 9.99534 7.98366 13.462 6.95678 14.5327C6.86112 14.6195 6.74467 14.6665 6.62498 14.6665C6.50529 14.6665 6.38884 14.6195 6.29318 14.5327C5.2663 13.462 2.20831 9.99534 2.20831 6.66668C2.20831 5.25219 2.67364 3.89563 3.50192 2.89544C4.33021 1.89525 5.45361 1.33334 6.62498 1.33334C7.79635 1.33334 8.91975 1.89525 9.74803 2.89544C10.5763 3.89563 11.0416 5.25219 11.0416 6.66668Z" stroke="#15803D" stroke-width="2" stroke-linecap="round" stroke-linejoin="round"/>
<path d="M6.625 8.66666C7.53972 8.66666 8.28125 7.77123 8.28125 6.66666C8.28125 5.56209 7.53972 4.66666 6.625 4.66666C5.71028 4.66666 4.96875 5.56209 4.96875 6.66666C4.96875 7.77123 5.71028 8.66666 6.625 8.66666Z" stroke="#15803D" stroke-width="2" stroke-linecap="round" stroke-linejoin="round"/>
</svg>
