<svg width="25" height="24" viewBox="0 0 25 24" fill="none" xmlns="http://www.w3.org/2000/svg">
<path d="M16.1167 21V19C16.1167 17.9391 15.6952 16.9217 14.9451 16.1716C14.195 15.4214 13.1775 15 12.1167 15H6.11667C5.0558 15 4.03839 15.4214 3.28824 16.1716C2.5381 16.9217 2.11667 17.9391 2.11667 19V21" stroke="#15803D" stroke-width="2" stroke-linecap="round" stroke-linejoin="round"/>
<path d="M16.1167 3.128C16.9744 3.35037 17.7341 3.85126 18.2763 4.55206C18.8186 5.25286 19.1129 6.11389 19.1129 7C19.1129 7.88611 18.8186 8.74714 18.2763 9.44794C17.7341 10.1487 16.9744 10.6496 16.1167 10.872" stroke="#15803D" stroke-width="2" stroke-linecap="round" stroke-linejoin="round"/>
<path d="M22.1167 21V19C22.116 18.1137 21.821 17.2528 21.278 16.5523C20.735 15.8519 19.9748 15.3516 19.1167 15.13" stroke="#15803D" stroke-width="2" stroke-linecap="round" stroke-linejoin="round"/>
<path d="M9.11667 11C11.3258 11 13.1167 9.20914 13.1167 7C13.1167 4.79086 11.3258 3 9.11667 3C6.90753 3 5.11667 4.79086 5.11667 7C5.11667 9.20914 6.90753 11 9.11667 11Z" stroke="#15803D" stroke-width="2" stroke-linecap="round" stroke-linejoin="round"/>
</svg>
