<svg width="17" height="16" viewBox="0 0 17 16" fill="none" xmlns="http://www.w3.org/2000/svg">
<g clip-path="url(#clip0_1_307)">
<path d="M9.55464 11.0453C9.69233 11.1086 9.84744 11.123 9.99444 11.0863C10.1414 11.0496 10.2715 10.9639 10.3633 10.8433L10.6 10.5333C10.7242 10.3677 10.8852 10.2333 11.0704 10.1408C11.2555 10.0482 11.4596 9.99999 11.6666 9.99999H13.6666C14.0203 9.99999 14.3594 10.1405 14.6094 10.3905C14.8595 10.6406 15 10.9797 15 11.3333V13.3333C15 13.6869 14.8595 14.0261 14.6094 14.2761C14.3594 14.5262 14.0203 14.6667 13.6666 14.6667C10.484 14.6667 7.4318 13.4024 5.18136 11.1519C2.93092 8.90151 1.66664 5.84926 1.66664 2.66666C1.66664 2.31304 1.80712 1.9739 2.05717 1.72385C2.30721 1.4738 2.64635 1.33333 2.99997 1.33333H4.99997C5.3536 1.33333 5.69273 1.4738 5.94278 1.72385C6.19283 1.9739 6.33331 2.31304 6.33331 2.66666V4.66666C6.33331 4.87365 6.28511 5.07781 6.19254 5.26295C6.09997 5.44809 5.96557 5.60913 5.79997 5.73333L5.48797 5.96733C5.36559 6.06078 5.27932 6.19372 5.24383 6.34356C5.20835 6.4934 5.22583 6.65091 5.29331 6.78933C6.20443 8.63991 7.70292 10.1365 9.55464 11.0453Z" stroke="#15803D" stroke-width="2" stroke-linecap="round" stroke-linejoin="round"/>
</g>
<defs>
<clipPath id="clip0_1_307">
<rect width="16" height="16" fill="white" transform="translate(0.333313)"/>
</clipPath>
</defs>
</svg>
